<?xml version="1.0" encoding="UTF-8"?>
<svg width="320" height="200" viewBox="0 0 320 200" xmlns="http://www.w3.org/2000/svg">
  <title>gh-manager-cli in Mac Terminal (Compact)</title>
  
  <!-- Terminal window shadow -->
  <rect x="3" y="6" width="314" height="188" rx="10" fill="#000000" opacity="0.2"/>
  
  <!-- Terminal window background -->
  <rect x="6" y="3" width="308" height="188" rx="10" fill="#0D1117" stroke="#21262D" stroke-width="1"/>
  
  <!-- Terminal title bar -->
  <rect x="6" y="3" width="308" height="22" rx="10" fill="#161B22"/>
  <rect x="6" y="20" width="308" height="5" fill="#161B22"/>
  
  <!-- Traffic light buttons -->
  <circle cx="18" cy="14" r="4" fill="#FF5F57"/>
  <circle cx="30" cy="14" r="4" fill="#FFBD2E"/>
  <circle cx="42" cy="14" r="4" fill="#28CA42"/>
  
  <!-- Window title -->
  <text x="160" y="18" text-anchor="middle" font-family="-apple-system, BlinkMacSystemFont, SF Pro Display, sans-serif" 
        font-size="11" fill="#F0F6FC" font-weight="500">gh-manager-cli</text>
  
  <!-- Terminal content area -->
  <rect x="6" y="25" width="308" height="163" fill="#0D1117"/>
  
  <!-- App interface -->
  <g font-family="SF Mono, Monaco, Cascadia Code, Roboto Mono, Consolas, monospace">
    <!-- Header -->
    <text x="12" y="42" font-size="12" fill="#58A6FF" font-weight="600">gh-manager-cli</text>
    <text x="12" y="56" font-size="9" fill="#8B949E">wiiiimm • 24 repositories</text>
    
    <!-- Repository list -->
    <rect x="10" y="64" width="300" height="14" fill="#1F6FEB" opacity="0.2" rx="2"/>
    <text x="14" y="74" font-size="10" fill="#58A6FF">▶ gh-manager-cli</text>
    <text x="140" y="74" font-size="10" fill="#3FB950">Public</text>
    <text x="200" y="74" font-size="10" fill="#FFA657">★1</text>
    
    <text x="14" y="88" font-size="10" fill="#F0F6FC">  homebrew-core</text>
    <text x="140" y="88" font-size="10" fill="#F85149">Private</text>
    <text x="200" y="88" font-size="10" fill="#FFA657">★0</text>
    
    <text x="14" y="102" font-size="10" fill="#F0F6FC">  api-server</text>
    <text x="140" y="102" font-size="10" fill="#A5A5F6">Internal</text>
    <text x="200" y="102" font-size="10" fill="#FFA657">★5</text>
    
    <text x="14" y="116" font-size="10" fill="#F0F6FC">  react-app</text>
    <text x="140" y="116" font-size="10" fill="#3FB950">Public</text>
    <text x="200" y="116" font-size="10" fill="#FFA657">★12</text>
    
    <text x="14" y="130" font-size="10" fill="#F0F6FC">  mobile-client</text>
    <text x="140" y="130" font-size="10" fill="#F85149">Private</text>
    <text x="200" y="130" font-size="10" fill="#FFA657">★2</text>
    
    <!-- Search bar -->
    <rect x="10" y="140" width="300" height="16" fill="#21262D" stroke="#30363D" stroke-width="1" rx="3"/>
    <text x="14" y="151" font-size="9" fill="#8B949E">Search: </text>
    <text x="50" y="151" font-size="9" fill="#F0F6FC">react</text>
    <rect x="74" y="146" width="6" height="10" fill="#58A6FF"/>
    
    <!-- Footer -->
    <text x="12" y="172" font-size="8" fill="#6E7681">Enter View • / Search • V Visibility • Q Quit</text>
  </g>
</svg>