<svg xmlns="http://www.w3.org/2000/svg" width="640" height="160" fill="none" aria-labelledby="title desc" role="img" viewBox="0 0 640 160"><title>gh-manager-cli Horizontal Logo</title><desc>Logo mark with wordmark to the right</desc><g transform="translate(0,0) scale(0.5)"><rect width="240" height="240" x="8" y="8" fill="#0D1117" stroke="#1F2937" stroke-width="8" rx="28"/><circle cx="28" cy="30" r="6" fill="#EF4444"/><circle cx="46" cy="30" r="6" fill="#F59E0B"/><circle cx="64" cy="30" r="6" fill="#10B981"/><path fill="#22D3EE" d="M40 98 L92 128 L40 158 Z"/><rect width="44" height="8" x="102" y="146" fill="#22D3EE" rx="4"/><path fill="#FACC15" d="M186 100 L192 118 L211 118 L195 129 L201 147 L186 136 L171 147 L177 129 L161 118 L180 118 Z"/><g stroke="#A3A3A3" stroke-linecap="round" stroke-linejoin="round" stroke-width="6"><circle cx="168" cy="170" r="8" fill="#A3A3A3"/><circle cx="210" cy="170" r="8" fill="#A3A3A3"/><circle cx="189" cy="200" r="8" fill="#A3A3A3"/><path d="M168 170 C178 170 189 176 189 188"/><path d="M210 170 C200 170 189 176 189 188"/></g></g><g transform="translate(152,36)"><text x="0" y="36" fill="#111827" font-family="Inter, ui-sans-serif, system-ui, -apple-system, Segoe UI, Roboto, Helvetica, Arial, &quot;Apple Color Emoji&quot;, &quot;Segoe UI Emoji&quot;" font-size="40" font-weight="700" letter-spacing="-.5">gh-manager-cli</text><rect width="360" height="6" x="0" y="50" fill="#22D3EE" opacity=".7" rx="3"/><text x="0" y="90" fill="#6B7280" font-family="Inter, ui-sans-serif, system-ui" font-size="16">Interactive GitHub repo manager for your terminal</text></g></svg>