<?xml version="1.0" encoding="UTF-8"?>
<svg width="520" height="320" viewBox="0 0 520 320" xmlns="http://www.w3.org/2000/svg">
  <title>gh-manager-cli Enterprise Terminal Screenshot</title>
  
  <!-- Terminal window shadow -->
  <rect x="6" y="12" width="508" height="300" rx="14" fill="#000000" opacity="0.25"/>
  
  <!-- Terminal window background -->
  <rect x="10" y="8" width="500" height="300" rx="14" fill="#0D1117" stroke="#21262D" stroke-width="2"/>
  
  <!-- Terminal title bar -->
  <rect x="10" y="8" width="500" height="32" rx="14" fill="#161B22"/>
  <rect x="10" y="32" width="500" height="8" fill="#161B22"/>
  
  <!-- Traffic light buttons -->
  <circle cx="28" cy="24" r="6" fill="#FF5F57"/>
  <circle cx="48" cy="24" r="6" fill="#FFBD2E"/>
  <circle cx="68" cy="24" r="6" fill="#28CA42"/>
  
  <!-- Window title -->
  <text x="260" y="29" text-anchor="middle" font-family="-apple-system, BlinkMacSystemFont, SF Pro Display, sans-serif" 
        font-size="14" fill="#F0F6FC" font-weight="500">Terminal — Enterprise GitHub Manager</text>
  
  <!-- Enterprise badge -->
  <rect x="420" y="16" width="60" height="16" fill="#1F6FEB" rx="8"/>
  <text x="450" y="27" text-anchor="middle" font-family="-apple-system, BlinkMacSystemFont, SF Pro Display, sans-serif" 
        font-size="10" fill="#FFFFFF" font-weight="600">ENT</text>
  
  <!-- Terminal content area -->
  <rect x="10" y="40" width="500" height="260" fill="#0D1117"/>
  
  <!-- App interface -->
  <g font-family="SF Mono, Monaco, Cascadia Code, Roboto Mono, Consolas, monospace">
    <!-- Header -->
    <text x="25" y="65" font-size="16" fill="#58A6FF" font-weight="700">🏢 Enterprise Repository Manager</text>
    <text x="25" y="85" font-size="12" fill="#8B949E">Organization: altx-labs (Enterprise) • Filter: Private/Internal • 156 repos</text>
    
    <!-- Enterprise features indicator -->
    <rect x="25" y="95" width="470" height="2" fill="#1F6FEB"/>
    
    <!-- Repository list with enterprise features -->
    <g font-size="11">
      <!-- Header -->
      <text x="30" y="115" fill="#6E7681">NAME</text>
      <text x="220" y="115" fill="#6E7681">VISIBILITY</text>
      <text x="320" y="115" fill="#6E7681">COMPLIANCE</text>
      <text x="420" y="115" fill="#6E7681">UPDATED</text>
      
      <!-- Selected repository -->
      <rect x="25" y="120" width="470" height="18" fill="#1F6FEB" opacity="0.3" rx="4"/>
      <text x="30" y="133" fill="#79C0FF" font-weight="600">▶ enterprise-api</text>
      <text x="220" y="133" fill="#A5A5F6" font-weight="500">Internal</text>
      <text x="320" y="133" fill="#3FB950">✓ SOC2</text>
      <text x="420" y="133" fill="#F0F6FC">1 hour ago</text>
      
      <!-- Other repositories -->
      <text x="30" y="153" fill="#F0F6FC">  customer-portal</text>
      <text x="220" y="153" fill="#F85149">Private</text>
      <text x="320" y="153" fill="#3FB950">✓ GDPR</text>
      <text x="420" y="153" fill="#F0F6FC">3 hours ago</text>
      
      <text x="30" y="173" fill="#F0F6FC">  ml-analytics</text>
      <text x="220" y="173" fill="#A5A5F6">Internal</text>
      <text x="320" y="173" fill="#FFA657">⚠ Review</text>
      <text x="420" y="173" fill="#F0F6FC">1 day ago</text>
      
      <text x="30" y="193" fill="#F0F6FC">  security-audit</text>
      <text x="220" y="193" fill="#F85149">Private</text>
      <text x="320" y="193" fill="#3FB950">✓ HIPAA</text>
      <text x="420" y="193" fill="#F0F6FC">2 days ago</text>
      
      <text x="30" y="213" fill="#F0F6FC">  infrastructure</text>
      <text x="220" y="213" fill="#A5A5F6">Internal</text>
      <text x="320" y="213" fill="#3FB950">✓ SOC2</text>
      <text x="420" y="213" fill="#F0F6FC">1 week ago</text>
    </g>
    
    <!-- Advanced search with enterprise filters -->
    <rect x="25" y="230" width="470" height="22" fill="#21262D" stroke="#30363D" stroke-width="1" rx="5"/>
    <text x="35" y="244" font-size="11" fill="#8B949E">Search: </text>
    <text x="80" y="244" font-size="11" fill="#F0F6FC">compliance:SOC2 visibility:internal</text>
    <rect x="280" y="235" width="8" height="12" fill="#58A6FF"/>
    
    <!-- Enterprise footer -->
    <text x="25" y="270" font-size="10" fill="#6E7681">Enterprise Features: Advanced Security • Compliance Tracking • SAML SSO</text>
    <text x="25" y="285" font-size="10" fill="#6E7681">↑/↓ Navigate • C Compliance • S Security • V Visibility • Q Quit</text>
  </g>
</svg>